<?xml version="1.0" encoding="UTF-8" standalone="no"?>
<svg xmlns:dc="http://purl.org/dc/elements/1.1/" xmlns:cc="http://creativecommons.org/ns#" xmlns:rdf="http://www.w3.org/1999/02/22-rdf-syntax-ns#" xmlns="http://www.w3.org/2000/svg" xmlns:svg="http://www.w3.org/2000/svg" height="400" viewBox="0 0 400 400" width="400" version="1.1" id="svg32">
  <metadata>
    <rdf:RDF xmlns:cc="http://web.resource.org/cc/" xmlns:dc="http://purl.org/dc/elements/1.1/" xmlns:rdf="http://www.w3.org/1999/02/22-rdf-syntax-ns#">
      <cc:Work>
        <dc:title>Srcery Logo Glyph</dc:title>
        <dc:creator>Daniel Berg</dc:creator>
        <dc:date>2023</dc:date>
        <dc:rights>Daniel Berg and srcery-colors contributors</dc:rights>
        <cc:license rdf:resource="http://creativecommons.org/licenses/by/4.0/"/>
      </cc:Work>
    </rdf:RDF>
  </metadata>
  <defs id="defs1">
    <clipPath id="eyeClip">
      <use href="#eyeShape" id="use1"/>
    </clipPath>
    <path d="M 131.65651,82.371147 A 43.578466,35.620237 0 0 0 96.508703,96.950743 43.578466,35.620237 0 0 0 131.65651,111.53127 43.578466,35.620237 0 0 0 166.81001,96.943184 43.578466,35.620237 0 0 0 131.65651,82.371147 Z" fill="#121110" id="eyeShape">
      <animate keyTimes="0;0;0.25;0.5;1" keySplines="0 0 1 1;0 0 1 1;0 0 1 1;0 0 1 1" fill="freeze" begin="indefiniate" id="blinkAnim" dur="0.16s" calcMode="spline" values="M131.657 82.3711C117.768 82.3752 104.713 87.7904 96.5087 96.9507C104.713 106.111 117.767 111.527 131.657 111.531C145.549 111.527 158.607 106.108 166.81 96.9432C158.601 87.7836 145.544 82.3711 131.657 82.3711Z;M131.657 82.3711C117.768 82.3752 104.713 87.7904 96.5087 96.9507C104.713 106.111 117.767 111.527 131.657 111.531C145.549 111.527 158.607 106.108 166.81 96.9432C158.601 87.7836 145.544 82.3711 131.657 82.3711Z;M131.657 87.8101C117.768 87.8142 103.051 91.8696 96.5087 96.9507C102.144 102.032 118.217 106.399 132.11 106.394C146.003 106.39 160.722 101.878 166.81 96.9432C159.81 92.165 145.544 87.8101 131.657 87.8101Z;M132.012 96.1054C118.123 96.1094 105.87 95.8871 96.5087 96.9507C106.162 97.31 118.729 97.0262 131.987 96.9511C145.246 96.8761 151.489 97.3669 166.81 96.9432C151.352 96.1824 145.899 96.1054 132.012 96.1054Z;M131.657 82.3711C117.768 82.3752 104.713 87.7904 96.5087 96.9507C104.713 106.111 117.767 111.527 131.657 111.531C145.549 111.527 158.607 106.108 166.81 96.9432C158.601 87.7836 145.544 82.3711 131.657 82.3711Z" attributeName="d"/>
    </path>
  </defs>
  <g id="star" transform="matrix(2.3376394,0,0,2.3376398,-107.7721,-19.813628)">
    <path d="M 49.056825,128.24738 86.955188,94.032286 49.056825,59.8172 l 50.991915,2.604466 -2.604474,-50.991911 34.215094,37.898363 34.21508,-37.898363 -2.60446,50.99191 50.99191,-2.604469 -37.89836,34.215102 37.89836,34.215072 -50.99191,-2.60446 2.60446,50.9919 -34.21508,-37.89835 -34.215094,37.89835 2.604474,-50.99189 z" fill="#c5b088" stroke-linejoin="round" stroke-width="1.4981" id="path2"/>
    <path d="m 165.87446,11.429752 -1.88302,4.010504 c -2.41353,15.614655 -7.43396,41.31809 -11.03076,60.483154 2.42435,0.939981 4.49648,1.869341 6.12677,3.024292 l 44.34447,-13.875339 c -13.35055,9.485873 -22.17433,18.803318 -33.83307,28.959449 0.33627,2.83655 0.40524,5.11115 0,7.262968 l 39.13212,26.66966 5.53183,0.28198 -37.89869,-34.214608 37.89869,-34.215238 -50.99246,2.604121 z" fill="#fce8c3" stroke-width="2.83106" id="shade"/>
  </g>
  <g stroke-width="2.83106" id="eye" transform="matrix(2.3376394,0,0,2.3376398,-107.7721,-19.813628)">
    <use href="#eyeShape" id="use2"/>
    <g id="eyeball" clip-path="url(#eyeClip)">
      <circle cx="131.65938" cy="96.951164" fill="#fce8c3" r="11.606529" id="circle3"/>
      <path id="circle4" d="m 126.94159,95.850729 a 5.1644082,5.1644082 0 0 0 -0.11854,1.100412 5.1644082,5.1644082 0 0 0 5.16438,5.164379 5.1644082,5.1644082 0 0 0 5.16437,-5.164379 5.1644082,5.1644082 0 0 0 -5.16437,-5.164376 5.1644082,5.1644082 0 0 0 -0.0756,7.8e-4 3.2995751,3.0896471 0 0 1 0.85475,2.073705 3.2995751,3.0896471 0 0 1 -3.29968,3.089891 3.2995751,3.0896471 0 0 1 -2.52526,-1.100412 z" style="fill:#121110"/>
    </g>
    <path d="m 119.07702,92.543101 c 0,0 11.67797,-10.538279 25.56526,0.12876" fill="none" stroke="#121110" stroke-width="0.529167" id="topRidge" transform="matrix(2.8310554,0,0,2.8310554,-241.63121,-172.17833)"/>
    <path d="m 95.493797,104.16402 c 0,0 33.060983,29.83442 72.376663,-0.36453" fill="none" stroke="#121110" stroke-width="1.4981" id="bottomRidge" style="stroke-width:1.49809;stroke-dasharray:none"/>
    <path id="lashes" d="m 119.76994,64.855118 0.016,0.310184 8.12923,23.180019 0.97821,-0.201647 -8.91791,-23.061014 z m 24.17145,0 -0.2055,0.227542 -8.91792,23.061014 0.97794,0.201647 8.1295,-23.180019 z m -41.26295,17.091497 0.2303,0.208259 17.8036,9.169421 1.19583,-0.745157 -18.92367,-8.616821 z m 58.35445,0 -0.30633,0.0157 -18.9234,8.616821 1.19584,0.745157 17.80332,-9.169421 z" transform="matrix(2.8310554,0,0,2.8310554,-241.63121,-172.17833)" style="display:inline;fill:#121110"/>
  </g>
  <g stroke-linejoin="round" stroke-width="0.037962" transform="matrix(6.6179866,0,0,6.6179877,-671.31985,-422.30454)" id="gems">
    <g transform="matrix(1.4300403,1.430039,-1.430039,1.4300403,232.32587,-171.07318)" id="blue">
      <path d="m 57.494489,119.15378 -2.225367,-3.10406 2.225366,-3.10405" fill="#68a8e4" id="path15"/>
      <path d="m 57.494488,112.94567 2.225367,3.10406 -2.225366,3.10405" fill="#2c78bf" id="path16"/>
    </g>
    <g transform="matrix(2.0223815,0,0,2.0223815,15.38356,-164.60761)" id="magenta">
      <path d="m 57.494489,119.15378 -2.225367,-3.10406 2.225366,-3.10405" fill="#e02c6d" id="path17"/>
      <path d="m 57.494488,112.94567 2.225367,3.10406 -2.225366,3.10405" fill="#ff5c8f" id="path18"/>
    </g>
    <g transform="matrix(1.4300396,-1.4300398,1.4300398,1.4300396,-133.44608,-6.634324)" id="cyan">
      <path d="m 57.494489,119.15378 -2.225367,-3.10406 2.225366,-3.10405" fill="#0aaeb3" id="path19"/>
      <path d="m 57.494488,112.94567 2.225367,3.10406 -2.225366,3.10405" fill="#2be4d0" id="path20"/>
    </g>
    <g transform="matrix(0,-2.0223815,2.0223815,0,-126.98055,210.30808)" id="white">
      <path d="m 57.494489,119.15378 -2.225367,-3.10406 2.225366,-3.10405" fill="#c5b088" id="path21"/>
      <path d="m 57.494488,112.94567 2.225367,3.10406 -2.225366,3.10405" fill="#fce8c3" id="path22"/>
    </g>
    <g transform="matrix(-1.4300388,-1.4300405,1.4300405,-1.4300388,30.992576,359.13766)" id="orange">
      <path d="m 57.494489,119.15378 -2.225367,-3.10406 2.225366,-3.10405" fill="#ff8700" id="path23"/>
      <path d="m 57.494488,112.94567 2.225367,3.10406 -2.225366,3.10405" fill="#ff5f00" id="path24"/>
    </g>
    <g transform="matrix(-2.0223815,0,0,-2.0223815,247.93514,352.67219)" id="red">
      <path d="m 57.494489,119.15378 -2.225367,-3.10406 2.225366,-3.10405" fill="#f75341" id="path25"/>
      <path d="m 57.494488,112.94567 2.225367,3.10406 -2.225366,3.10405" fill="#ef2f27" id="path26"/>
    </g>
    <g transform="matrix(-1.4300405,1.4300388,-1.4300388,-1.4300405,396.76473,194.69906)" id="green">
      <path d="m 57.494489,119.15378 -2.225367,-3.10406 2.225366,-3.10405" fill="#98bc37" id="path27"/>
      <path d="m 57.494488,112.94567 2.225367,3.10406 -2.225366,3.10405" fill="#519f50" id="path28"/>
    </g>
    <g transform="matrix(0,2.0223815,-2.0223815,0,390.29926,-22.243502)" id="yellow" style="display:inline">
      <path d="m 57.494489,119.15378 -2.225367,-3.10406 2.225366,-3.10405" fill="#fed06e" id="path29"/>
      <path d="m 57.494488,112.94567 2.225367,3.10406 -2.225366,3.10405" fill="#fbb829" id="path30" style="stroke:none"/>
    </g>
  </g>
</svg>
