<?xml version="1.0" encoding="UTF-8"?>
<svg width="32" height="32" version="1.1" viewBox="0 0 32 32" xmlns="http://www.w3.org/2000/svg" xmlns:cc="http://creativecommons.org/ns#" xmlns:dc="http://purl.org/dc/elements/1.1/" xmlns:rdf="http://www.w3.org/1999/02/22-rdf-syntax-ns#">
 <metadata>
  <rdf:RDF>
   <cc:Work>
    <dc:creator>Daniel Berg</dc:creator>
    <dc:date>2026</dc:date>
    <dc:rights>Daniel Berg and srcery-colors contributors</dc:rights>
    <cc:license rdf:resource="http://creativecommons.org/licenses/by/4.0/"/>
   </cc:Work>
   <cc:License rdf:about="http://creativecommons.org/licenses/by/4.0/">
    <cc:permits rdf:resource="http://creativecommons.org/ns#Reproduction"/>
    <cc:permits rdf:resource="http://creativecommons.org/ns#Distribution"/>
    <cc:requires rdf:resource="http://creativecommons.org/ns#Notice"/>
    <cc:requires rdf:resource="http://creativecommons.org/ns#Attribution"/>
    <cc:permits rdf:resource="http://creativecommons.org/ns#DerivativeWorks"/>
   </cc:License>
  </rdf:RDF>
 </metadata>
 <circle cx="16" cy="16" r="15.632" fill="#121110" stroke="#262522" stroke-width=".73501"/>
 <g transform="matrix(.065909 0 0 .065909 2.8181 2.8181)">
  <g id="star" transform="matrix(2.3376 0 0 2.3376 -107.77 -19.814)">
   <path d="m49.057 128.25 37.898-34.215-37.898-34.215 50.992 2.6045-2.6045-50.992 34.215 37.898 34.215-37.898-2.6045 50.992 50.992-2.6045-37.898 34.215 37.898 34.215-50.992-2.6045 2.6045 50.992-34.215-37.898-34.215 37.898 2.6045-50.992z" fill="#c5b088" stroke-linejoin="round" stroke-width="1.4981"/>
   <path id="shade" d="m165.87 11.43-1.883 4.0105c-2.4135 15.615-7.434 41.318-11.031 60.483 2.4244 0.93998 4.4965 1.8693 6.1268 3.0243l44.344-13.875c-13.351 9.4859-22.174 18.803-33.833 28.959 0.33627 2.8366 0.40524 5.1112 0 7.263l39.132 26.67 5.5318 0.28198-37.899-34.215 37.899-34.215-50.992 2.6041z" fill="#fce8c3" stroke-width="2.8311"/>
  </g>
  <g id="eye" transform="matrix(2.3376 0 0 2.3376 -107.77 -19.814)" stroke-width="2.8311">
   <path id="eyeShape" d="m131.66 82.371a43.578 35.62 0 0 0-35.148 14.58 43.578 35.62 0 0 0 35.148 14.581 43.578 35.62 0 0 0 35.154-14.588 43.578 35.62 0 0 0-35.154-14.572z" fill="#121110">
    <animate id="blinkAnim" fill="freeze" attributeName="d" begin="indefinite" calcMode="spline" dur="0.16s" keySplines="0 0 1 1;0 0 1 1;0 0 1 1;0 0 1 1" keyTimes="0;0;0.25;0.5;1" values="M131.657 82.3711C117.768 82.3752 104.713 87.7904 96.5087 96.9507C104.713 106.111 117.767 111.527 131.657 111.531C145.549 111.527 158.607 106.108 166.81 96.9432C158.601 87.7836 145.544 82.3711 131.657 82.3711Z;M131.657 82.3711C117.768 82.3752 104.713 87.7904 96.5087 96.9507C104.713 106.111 117.767 111.527 131.657 111.531C145.549 111.527 158.607 106.108 166.81 96.9432C158.601 87.7836 145.544 82.3711 131.657 82.3711Z;M131.657 87.8101C117.768 87.8142 103.051 91.8696 96.5087 96.9507C102.144 102.032 118.217 106.399 132.11 106.394C146.003 106.39 160.722 101.878 166.81 96.9432C159.81 92.165 145.544 87.8101 131.657 87.8101Z;M132.012 96.1054C118.123 96.1094 105.87 95.8871 96.5087 96.9507C106.162 97.31 118.729 97.0262 131.987 96.9511C145.246 96.8761 151.489 97.3669 166.81 96.9432C151.352 96.1824 145.899 96.1054 132.012 96.1054Z;M131.657 82.3711C117.768 82.3752 104.713 87.7904 96.5087 96.9507C104.713 106.111 117.767 111.527 131.657 111.531C145.549 111.527 158.607 106.108 166.81 96.9432C158.601 87.7836 145.544 82.3711 131.657 82.3711Z"/>
   </path>
   <clipPath id="eyeClip">
    <path id="clipShape" d="m131.66 82.371a43.578 35.62 0 0 0-35.148 14.58 43.578 35.62 0 0 0 35.148 14.581 43.578 35.62 0 0 0 35.154-14.588 43.578 35.62 0 0 0-35.154-14.572z" fill="#121110">
     <animate id="clipAnim" fill="freeze" attributeName="d" begin="indefinite" calcMode="spline" dur="0.16s" keySplines="0 0 1 1;0 0 1 1;0 0 1 1;0 0 1 1" keyTimes="0;0;0.25;0.5;1" values="M131.657 82.3711C117.768 82.3752 104.713 87.7904 96.5087 96.9507C104.713 106.111 117.767 111.527 131.657 111.531C145.549 111.527 158.607 106.108 166.81 96.9432C158.601 87.7836 145.544 82.3711 131.657 82.3711Z;M131.657 82.3711C117.768 82.3752 104.713 87.7904 96.5087 96.9507C104.713 106.111 117.767 111.527 131.657 111.531C145.549 111.527 158.607 106.108 166.81 96.9432C158.601 87.7836 145.544 82.3711 131.657 82.3711Z;M131.657 87.8101C117.768 87.8142 103.051 91.8696 96.5087 96.9507C102.144 102.032 118.217 106.399 132.11 106.394C146.003 106.39 160.722 101.878 166.81 96.9432C159.81 92.165 145.544 87.8101 131.657 87.8101Z;M132.012 96.1054C118.123 96.1094 105.87 95.8871 96.5087 96.9507C106.162 97.31 118.729 97.0262 131.987 96.9511C145.246 96.8761 151.489 97.3669 166.81 96.9432C151.352 96.1824 145.899 96.1054 132.012 96.1054Z;M131.657 82.3711C117.768 82.3752 104.713 87.7904 96.5087 96.9507C104.713 106.111 117.767 111.527 131.657 111.531C145.549 111.527 158.607 106.108 166.81 96.9432C158.601 87.7836 145.544 82.3711 131.657 82.3711Z"/>
    </path>
   </clipPath>
   <g id="eyeball" clip-path="url(#eyeClip)">
    <circle cx="131.66" cy="96.951" r="11.607" fill="#fce8c3"/>
    <path d="m126.94 95.851a5.1644 5.1644 0 0 0-0.11854 1.1004 5.1644 5.1644 0 0 0 5.1644 5.1644 5.1644 5.1644 0 0 0 5.1644-5.1644 5.1644 5.1644 0 0 0-5.1644-5.1644 5.1644 5.1644 0 0 0-0.0756 7.8e-4 3.2996 3.0896 0 0 1 0.85475 2.0737 3.2996 3.0896 0 0 1-3.2997 3.0899 3.2996 3.0896 0 0 1-2.5253-1.1004z" fill="#121110"/>
   </g>
   <path id="topRidge" transform="matrix(2.8311 0 0 2.8311 -241.63 -172.18)" d="m119.08 92.543s11.678-10.538 25.565 0.12876" fill="none" stroke="#121110" stroke-width=".52917"/>
   <path id="bottomRidge" d="m95.494 104.16s33.061 29.834 72.377-0.36453" fill="none" stroke="#121110" stroke-width="1.4981"/>
   <path id="lashes" transform="matrix(2.8311 0 0 2.8311 -241.63 -172.18)" d="m119.77 64.855 0.016 0.31018 8.1292 23.18 0.97821-0.20165-8.9179-23.061zm24.171 0-0.2055 0.22754-8.9179 23.061 0.97794 0.20165 8.1295-23.18zm-41.263 17.091 0.2303 0.20826 17.804 9.1694 1.1958-0.74516-18.924-8.6168zm58.354 0-0.30633 0.0157-18.923 8.6168 1.1958 0.74516 17.803-9.1694z" fill="#121110"/>
  </g>
  <g id="gems" transform="matrix(6.618 0 0 6.618 -671.32 -422.3)" stroke-linejoin="round" stroke-width=".037962">
   <g id="blue" transform="matrix(1.43 1.43 -1.43 1.43 232.33 -171.07)">
    <path d="m57.494 119.15-2.2254-3.1041 2.2254-3.104" fill="#68a8e4"/>
    <path d="m57.494 112.95 2.2254 3.1041-2.2254 3.104" fill="#2c78bf"/>
   </g>
   <g id="magenta" transform="matrix(2.0224 0 0 2.0224 15.384 -164.61)">
    <path d="m57.494 119.15-2.2254-3.1041 2.2254-3.104" fill="#e02c6d"/>
    <path d="m57.494 112.95 2.2254 3.1041-2.2254 3.104" fill="#ff5c8f"/>
   </g>
   <g id="cyan" transform="matrix(1.43 -1.43 1.43 1.43 -133.45 -6.6343)">
    <path d="m57.494 119.15-2.2254-3.1041 2.2254-3.104" fill="#0aaeb3"/>
    <path d="m57.494 112.95 2.2254 3.1041-2.2254 3.104" fill="#2be4d0"/>
   </g>
   <g id="white" transform="matrix(0 -2.0224 2.0224 0 -126.98 210.31)">
    <path d="m57.494 119.15-2.2254-3.1041 2.2254-3.104" fill="#c5b088"/>
    <path d="m57.494 112.95 2.2254 3.1041-2.2254 3.104" fill="#fce8c3"/>
   </g>
   <g id="orange" transform="matrix(-1.43 -1.43 1.43 -1.43 30.993 359.14)">
    <path d="m57.494 119.15-2.2254-3.1041 2.2254-3.104" fill="#ff8700"/>
    <path d="m57.494 112.95 2.2254 3.1041-2.2254 3.104" fill="#ff5f00"/>
   </g>
   <g id="red" transform="matrix(-2.0224 0 0 -2.0224 247.94 352.67)">
    <path d="m57.494 119.15-2.2254-3.1041 2.2254-3.104" fill="#f75341"/>
    <path d="m57.494 112.95 2.2254 3.1041-2.2254 3.104" fill="#ef2f27"/>
   </g>
   <g id="green" transform="matrix(-1.43 1.43 -1.43 -1.43 396.76 194.7)">
    <path d="m57.494 119.15-2.2254-3.1041 2.2254-3.104" fill="#98bc37"/>
    <path d="m57.494 112.95 2.2254 3.1041-2.2254 3.104" fill="#519f50"/>
   </g>
   <g id="yellow" transform="matrix(0 2.0224 -2.0224 0 390.3 -22.244)">
    <path d="m57.494 119.15-2.2254-3.1041 2.2254-3.104" fill="#fed06e"/>
    <path d="m57.494 112.95 2.2254 3.1041-2.2254 3.104" fill="#fbb829"/>
   </g>
  </g>
 </g>
</svg>
