<?xml version="1.0" standalone="no"?>
<!DOCTYPE svg PUBLIC "-//W3C//DTD SVG 20010904//EN"
 "http://www.w3.org/TR/2001/REC-SVG-20010904/DTD/svg10.dtd">
<svg version="1.0" xmlns="http://www.w3.org/2000/svg"
 width="200.000000pt" height="200.000000pt" viewBox="0 0 200.000000 200.000000"
 preserveAspectRatio="xMidYMid meet">
<metadata>
Created by potrace 1.11, written by Peter Selinger 2001-2013
</metadata>
<g transform="translate(0.000000,200.000000) scale(0.100000,-0.100000)"
fill="#000000" stroke="none">
<path d="M145 1003 l0 -498 108 -3 107 -3 1 28 c1 34 1 955 0 966 -1 4 -49 7
-109 7 l-107 0 0 -497z"/>
<path d="M443 1000 l0 -500 109 0 108 0 0 500 0 500 -108 0 -109 0 0 -500z"/>
<path d="M741 1000 l-1 -500 110 0 110 0 0 500 0 500 -110 0 -109 0 0 -500z"/>
<path d="M1040 1000 l0 -500 109 0 108 0 1 500 0 500 -109 0 -109 0 0 -500z"/>
<path d="M1337 1023 c1 -263 3 -488 3 -500 0 -22 3 -23 108 -23 l107 0 0 498
0 497 -110 3 -110 3 2 -478z"/>
<path d="M1639 1493 c-1 -5 -2 -230 -3 -500 l-1 -493 110 0 110 0 0 500 0 500
-107 0 c-60 0 -109 -3 -109 -7z"/>
</g>
</svg>
