<svg height="543.86139" viewBox="0 0 166.07567 143.89666" width="627.68762" xmlns="http://www.w3.org/2000/svg"><path d="m71.683926 54.919768 28.647994-49.6197832 28.648-49.6197858 28.648 49.6197841 28.64799 49.6197879-57.29599-.000002z" style="fill:none;stroke:#918175;stroke-width:.366291;stroke-linecap:square;stroke-linejoin:round;stroke-miterlimit:0" transform="matrix(1.4446608 0 0 1.4446608 -103.294394 64.291636)"/><g fill="#918175"><path d="m-686.12775-109.72176h-134.07269-134.07269l67.03634-116.11035 67.03635-116.11036 67.03635 116.11035z" transform="matrix(.01847084 0 0 .01847084 178.484462 145.658726)"/><path d="m-686.12775-109.72176h-134.07269-134.07269l67.03634-116.11035 67.03635-116.11036 67.03635 116.11035z" transform="matrix(.01847084 0 0 .01847084 98.187632 6.580522)"/><path d="m-686.12775-109.72176h-134.07269-134.07269l67.03634-116.11035 67.03635-116.11036 67.03635 116.11035z" transform="matrix(.01847084 0 0 .01847084 17.89079 145.658726)"/></g></svg>