<svg viewBox="0 0 112.15923 112.19439" xmlns="http://www.w3.org/2000/svg"><path d="m60.613281 8.011719c-9.75.589843-19.1875 3.714843-27.339843 9.0625-3.4375 2.261719-5.847657 4.238281-8.910157 7.289062-4.652343 4.660157-8.011719 9.363281-10.863281 15.199219-7.9375 16.3125-7.375 35.9375 1.488281 51.75 2.597657 4.625 5.511719 8.460938 9.375 12.32422 3.0625 3.05078 5.472657 5.03906 8.898438 7.27734 18.664062 12.25 42.8125 12.25 61.476562 0 3.425781-2.23828 5.835939-4.22656 8.898439-7.27734 3.86328-3.863282 6.77734-7.69922 9.375-12.32422 8.86328-15.8125 9.42578-35.4375 1.48828-51.75-2.85156-5.835938-6.21094-10.539062-10.86328-15.199219-3.0625-3.050781-5.472658-5.027343-8.910158-7.289062-10.078124-6.613281-22.050781-9.800781-34.113281-9.0625zm27.324219 21.914062c4.574219 1.1875 7.550781 4.523438 7.773438 8.699219.1875 3.335938-1.5625 5.960938-4.625 6.949219-.847657.277343-1.261719.324219-2.398438.324219-1.664062.015624-2.550781-.109376-6.664062-.898438-3.875-.75-5.410157-.960938-8.460938-1.125-7.460938-.398438-11.460938.261719-12.386719 2.023438-.476562.914062.085938 2.203124 1.648438 3.851562.839843.863281 3.199219 2.738281 11.175781 8.835938 5.574219 4.25 10.050781 7.738281 9.960938 7.75-.07422.02734-4.699219.203124-10.273438.414062-10.226562.386719-11.238281.460938-13.550781 1.011719-4.285157 1.011719-8.363281 2.925781-10.035157 4.714843-2.226562 2.375-1.550781 4.734376 2.023438 7.136719 3.5 2.335938 9.3125 4.300781 19.6875 6.636719 9.726562 2.1875 14.0625 3.601562 16.949219 5.476562.988281.648438 1.550781 1.210938 1.8125 1.859376.6875 1.613281-1.835938 3.175781-6.597657 4.101562-3.1875.613281-5.289062.75-11.726562.75-10.335938-.011719-20.613281-.835938-26.460938-2.136719-2.765624-.613281-2.703124-.664062.710938-.589843 6.675781.152343 23.324219-.585938 26.050781-1.148438 1.574219-.324219 2.0625-.863281 1.335938-1.476562-.800781-.671876-2.097657-.984376-4.949219-1.210938-5.550781-.4375-11.726562-1.851562-17.148438-3.949219-8.152343-3.136719-14.4375-7.613281-17.789062-12.652343-3.601562-5.410157-1.5625-10.023438 5.699219-12.9375 4.789062-1.921876 11.761719-3 18.175781-2.785157 4.835938.148438 8.074219.710938 11.75 2.035157.101562.03906-.511719-.347657-1.375-.859376-10.324219-6.125-16.1875-11.5-19.3125-17.714843-.625-1.25-1.0625-2.722657-1.0625-3.574219 0-1.4375.800781-2.648438 2.175781-3.300781 1.363281-.648438 2.472657-.824219 5.136719-.824219 2.636719.01172 3.238281.07422 8.1875.875 4.511719.726562 7.398438 1.136719 9.625 1.363281 4.773438.5 9.601562.5625 10.960938.148438.789062-.25 1.289062-.785157 1.289062-1.398438 0-1.664062-4.960938-3.539062-13.875-5.238281-3.539062-.675781-3.914062-.789062-2.75-.8125.449219-.01172 3.761719-.175781 7.375-.375 7.9375-.4375 10.113281-.425781 11.9375.05078zm0 0" transform="translate(-7.920385 -7.907169)"/></svg>
