<svg height="228.43968" viewBox="0 0 60.44134 60.441335" width="228.43973" xmlns="http://www.w3.org/2000/svg"><g transform="translate(-101.43868 -63.811624)"><path d="m94.704041 91.457808-6.042816-16.992628-16.288517 7.742687 7.742686-16.288518-16.992628-6.042815 16.992628-6.042816-7.742687-16.288517 16.288518 7.742686 6.042815-16.992628 6.04282 16.992628 16.28851-7.742687-7.74268 16.288518 16.99262 6.042815-16.99262 6.042816 7.74268 16.288517-16.28851-7.742686z" fill="#baa67f" stroke-linejoin="round" stroke-width=".529167" transform="matrix(.38268343 .92387953 -.92387953 .38268343 150.736392 -16.376593)"/><path d="m131.65835 89.913281a15.393011 12.581964 0 0 0 -12.41509 5.14988 15.393011 12.581964 0 0 0 12.41509 5.150209 15.393011 12.581964 0 0 0 12.4171-5.152879 15.393011 12.581964 0 0 0 -12.4171-5.14721z" fill="#1c1b19"/><circle cx="131.65936" cy="95.063309" fill="#fce8c3" r="4.099718"/><circle cx="131.775193" cy="95.063309" fill="#1c1b19" r="1.824199"/><ellipse cx="130.884813" cy="93.97197" fill="#fce8c3" rx="1.165493" ry="1.091341"/><path d="m118.88477 97.611071s11.67797 10.538269 25.56526-.12876" fill="none" stroke="#1c1b19" stroke-width=".529167"/><path d="m143.74499 64.854995-.66513 1.416611c-.85252 5.515489-2.62586 14.594589-3.89634 21.364172.85634.332025 1.58827.660298 2.16413 1.068256l15.66358-4.901119c-4.71575 3.350649-7.83253 6.641805-11.95069 10.229206.11878 1.001941.14314 1.805387 0 2.565462l13.82245 9.420397 1.95398.0996-13.38677-12.085459 13.38677-12.085683-18.01182.919841z" fill="#fce8c3"/><path d="m102.98457 81.9623-.30624-.01564.2305.208161 17.8035 9.16936 1.19578-.74515z" fill="#1c1b19"/><g transform="translate(-.196268)"><path d="m119.07702 92.543101s11.67797-10.538279 25.56526.12876" fill="none" stroke="#1c1b19" stroke-width=".529167"/><g fill="#1c1b19"><path d="m143.73577 65.082601.20549-.227606-.0158.310184-8.12946 23.180121-.97809-.201639z"/><path d="m160.72668 81.9623.30624-.01564-.2305.208161-17.8035 9.16936-1.19578-.74515z"/><path d="m119.97549 65.082603-.20549-.227606.0158.310184 8.12946 23.180121.97809-.201639z"/><path d="m102.98457 81.9623-.30624-.01564.2305.208161 17.8035 9.16936 1.19578-.74515z"/></g></g><path d="m155.60244 94.032288c0 6.611702-2.67992 12.597472-7.01277 16.930322-4.33285 4.33284-10.31862 7.01276-16.93032 7.01276s-12.59747-2.67992-16.93032-7.01277c-4.33284-4.33285-7.01276-10.31862-7.01276-16.930312 0-6.611699 2.67992-12.59747 7.01277-16.930315 4.33284-4.332846 10.31861-7.012767 16.93031-7.012768s12.59747 2.679919 16.93032 7.012765 7.01277 10.318617 7.01277 16.930318z" fill="none" stroke-miterlimit="0" stroke-width="1.00012"/><g stroke-linejoin="round" stroke-width=".037962"><g transform="matrix(0 2.0223815 -2.0223815 0 390.29926 -22.243502)"><path d="m57.494489 119.15378-2.225367-3.10406 2.225366-3.10405" fill="#e02c6d"/><path d="m57.494488 112.94567 2.225367 3.10406-2.225366 3.10405" fill="#ff5c8f"/></g><g transform="matrix(1.4300403 1.430039 -1.430039 1.4300403 232.32587 -171.07318)"><path d="m57.494489 119.15378-2.225367-3.10406 2.225366-3.10405" fill="#68a8e4"/><path d="m57.494488 112.94567 2.225367 3.10406-2.225366 3.10405" fill="#2c78bf"/></g><g transform="matrix(2.0223815 0 0 2.0223815 15.38356 -164.60761)"><path d="m57.494489 119.15378-2.225367-3.10406 2.225366-3.10405" fill="#e02c6d"/><path d="m57.494488 112.94567 2.225367 3.10406-2.225366 3.10405" fill="#ff5c8f"/></g><g transform="matrix(1.4300396 -1.4300398 1.4300398 1.4300396 -133.44608 -6.634324)"><path d="m57.494489 119.15378-2.225367-3.10406 2.225366-3.10405" fill="#0aaeb3"/><path d="m57.494488 112.94567 2.225367 3.10406-2.225366 3.10405" fill="#2be4d0"/></g><g transform="matrix(0 -2.0223815 2.0223815 0 -126.98055 210.30808)"><path d="m57.494489 119.15378-2.225367-3.10406 2.225366-3.10405" fill="#baa67f"/><path d="m57.494488 112.94567 2.225367 3.10406-2.225366 3.10405" fill="#fce8c3"/></g><g transform="matrix(-1.4300388 -1.4300405 1.4300405 -1.4300388 30.992576 359.13766)"><path d="m57.494489 119.15378-2.225367-3.10406 2.225366-3.10405" fill="#ff8700"/><path d="m57.494488 112.94567 2.225367 3.10406-2.225366 3.10405" fill="#ff5f00"/></g><g transform="matrix(-2.0223815 0 0 -2.0223815 247.93514 352.67219)"><path d="m57.494489 119.15378-2.225367-3.10406 2.225366-3.10405" fill="#f75341"/><path d="m57.494488 112.94567 2.225367 3.10406-2.225366 3.10405" fill="#ef2f27"/></g><g transform="matrix(-1.4300405 1.4300388 -1.4300388 -1.4300405 396.76473 194.69906)"><path d="m57.494489 119.15378-2.225367-3.10406 2.225366-3.10405" fill="#98bc37"/><path d="m57.494488 112.94567 2.225367 3.10406-2.225366 3.10405" fill="#519f50"/></g><g transform="matrix(0 2.0223815 -2.0223815 0 390.29926 -22.243502)"><path d="m57.494489 119.15378-2.225367-3.10406 2.225366-3.10405" fill="#fed06e"/><path d="m57.494488 112.94567 2.225367 3.10406-2.225366 3.10405" fill="#fbb829"/></g></g></g></svg>