<svg fill="none" viewBox="0 0 32 32" xmlns="http://www.w3.org/2000/svg" xmlns:xlink="http://www.w3.org/1999/xlink"><linearGradient id="a" gradientUnits="userSpaceOnUse" x1="16.180799" x2="16.180799" y1="27.3899" y2="4.61023"><stop offset="0" stop-color="#7400e1"/><stop offset="1" stop-color="#4000bf"/></linearGradient><path d="m16 0c-8.83656 0-16 7.16344-16 16 0 8.8366 7.16344 16 16 16 8.8366 0 16-7.1634 16-16 0-8.83656-7.1634-16-16-16zm0 1.62712c7.9379 0 14.3729 6.43496 14.3729 14.37288 0 7.9379-6.435 14.3729-14.3729 14.3729-7.93792 0-14.37288-6.435-14.37288-14.3729 0-7.93792 6.43496-14.37288 14.37288-14.37288z" fill="#fce8c3"/><path clip-rule="evenodd" d="m16.1808 4.61023c6.2905 0 11.3899 5.09937 11.3899 11.38987 0 6.2904-5.0994 11.3898-11.3899 11.3898-6.29038 0-11.38978-5.0994-11.38978-11.3898 0-1.5374.30457-3.0036.85668-4.3416.80615 1.0978 2.1062 1.8105 3.57269 1.8105 2.44631 0 4.42941-1.9831 4.42941-4.4294 0-1.46649-.7127-2.76653-1.8106-3.57267 1.3381-.55212 2.8043-.8567 4.3416-.8567z" fill="url(#a)" fill-rule="evenodd"/></svg>
