<svg viewBox="0 0 35.937 34.091" xmlns="http://www.w3.org/2000/svg">
<title>Nova editor logo</title>
<path d="m816.257 977.977s-.257-11.177-10.289-11.73c-9.958-.551-11.6 8.583-11.724 11.836-.107 2.807 1.572 11.244 8.956 11.656 4.821.269 5.441-3.82 5.441-3.82a4.277 4.277 0 0 1 -4.4 2.665 5.144 5.144 0 0 1 -4.916-5.61c.206-4.2 2.621-8.338 9.071-7.861 6.186.458 7.861 2.864 7.861 2.864zm-9.848 20.765s9.168 5.108 14.665-3.285c5.455-8.326-1.656-14.313-4.418-16.048-2.384-1.5-11.07-4.282-14.548 1.448a5.657 5.657 0 0 0 .549 7.067 4.26 4.26 0 0 1 -.113-5.137 5.61 5.61 0 0 1 7.685-1.478c3.306 2.07 4.709 6.39 2.174 11.157-2.903 5.468-5.994 6.276-5.994 6.276zm-13.159-19.1s-9.448 5.69-4.91 14.635c4.5 8.874 13.255 5.734 16.142 4.211 2.491-1.309 8.977-6.976 5.641-13.559-2.179-4.3-6.039-2.791-6.039-2.791a4.284 4.284 0 0 1 4.517 2.472c1.49 2.826-.3 6.134-2.77 7.466-3.1 1.67-8.882.166-10.868-3.516-2.863-5.302-1.713-8.919-1.713-8.919z" fill="#fff" fill-rule="evenodd" transform="translate(-787.125 -966.219)"/>
</svg>
